<svg xmlns="http://www.w3.org/2000/svg" width="1200" height="720" viewBox="0 0 1200 720">
<rect x="0" y="0" width="1200" height="720" fill="#f8fafc"/>
<text x="50" y="48" font-family="Arial, sans-serif" font-size="28" font-weight="700" fill="#0f172a">Scenario A: Monthly Energy Balance</text>
<text x="100" y="80" font-family="Arial, sans-serif" font-size="16" fill="#475569">Grouped monthly totals from the populated RE100 workbook output sheets.</text>
<line x1="100" y1="580" x2="1100" y2="580" stroke="#94a3b8" stroke-width="2"/>
<line x1="100" y1="100" x2="100" y2="580" stroke="#94a3b8" stroke-width="2"/>
<text x="35" y="340" transform="rotate(-90 35 340)" font-family="Arial, sans-serif" font-size="15" fill="#334155">GWh/month</text>
<line x1="100" y1="580.00" x2="1100" y2="580.00" stroke="#e2e8f0" stroke-width="1"/>
<text x="88" y="585.00" text-anchor="end" font-family="Arial, sans-serif" font-size="13" fill="#475569">0.0</text>
<line x1="100" y1="484.00" x2="1100" y2="484.00" stroke="#e2e8f0" stroke-width="1"/>
<text x="88" y="489.00" text-anchor="end" font-family="Arial, sans-serif" font-size="13" fill="#475569">7.1</text>
<line x1="100" y1="388.00" x2="1100" y2="388.00" stroke="#e2e8f0" stroke-width="1"/>
<text x="88" y="393.00" text-anchor="end" font-family="Arial, sans-serif" font-size="13" fill="#475569">14.1</text>
<line x1="100" y1="292.00" x2="1100" y2="292.00" stroke="#e2e8f0" stroke-width="1"/>
<text x="88" y="297.00" text-anchor="end" font-family="Arial, sans-serif" font-size="13" fill="#475569">21.2</text>
<line x1="100" y1="196.00" x2="1100" y2="196.00" stroke="#e2e8f0" stroke-width="1"/>
<text x="88" y="201.00" text-anchor="end" font-family="Arial, sans-serif" font-size="13" fill="#475569">28.2</text>
<line x1="100" y1="100.00" x2="1100" y2="100.00" stroke="#e2e8f0" stroke-width="1"/>
<text x="88" y="105.00" text-anchor="end" font-family="Arial, sans-serif" font-size="13" fill="#475569">35.3</text>
<text x="141.67" y="604" text-anchor="middle" font-family="Arial, sans-serif" font-size="12" fill="#475569">Jan</text>
<rect x="106.94" y="208.37" width="11.11" height="371.63" fill="#0f172a" rx="2"/>
<rect x="120.83" y="261.98" width="11.11" height="318.02" fill="#0ea5e9" rx="2"/>
<rect x="134.72" y="379.02" width="11.11" height="200.98" fill="#f59e0b" rx="2"/>
<rect x="148.61" y="575.67" width="11.11" height="4.33" fill="#dc2626" rx="2"/>
<rect x="162.50" y="458.66" width="11.11" height="121.34" fill="#22c55e" rx="2"/>
<text x="225.00" y="604" text-anchor="middle" font-family="Arial, sans-serif" font-size="12" fill="#475569">Feb</text>
<rect x="190.28" y="249.92" width="11.11" height="330.08" fill="#0f172a" rx="2"/>
<rect x="204.17" y="248.75" width="11.11" height="331.25" fill="#0ea5e9" rx="2"/>
<rect x="218.06" y="389.27" width="11.11" height="190.73" fill="#f59e0b" rx="2"/>
<rect x="231.94" y="580.00" width="11.11" height="0.00" fill="#dc2626" rx="2"/>
<rect x="245.83" y="415.82" width="11.11" height="164.18" fill="#22c55e" rx="2"/>
<text x="308.33" y="604" text-anchor="middle" font-family="Arial, sans-serif" font-size="12" fill="#475569">Mar</text>
<rect x="273.61" y="203.27" width="11.11" height="376.73" fill="#0f172a" rx="2"/>
<rect x="287.50" y="342.45" width="11.11" height="237.55" fill="#0ea5e9" rx="2"/>
<rect x="301.39" y="303.86" width="11.11" height="276.14" fill="#f59e0b" rx="2"/>
<rect x="315.28" y="577.21" width="11.11" height="2.79" fill="#dc2626" rx="2"/>
<rect x="329.17" y="470.72" width="11.11" height="109.28" fill="#22c55e" rx="2"/>
<text x="391.67" y="604" text-anchor="middle" font-family="Arial, sans-serif" font-size="12" fill="#475569">Apr</text>
<rect x="356.94" y="192.40" width="11.11" height="387.60" fill="#0f172a" rx="2"/>
<rect x="370.83" y="318.18" width="11.11" height="261.82" fill="#0ea5e9" rx="2"/>
<rect x="384.72" y="316.11" width="11.11" height="263.89" fill="#f59e0b" rx="2"/>
<rect x="398.61" y="575.37" width="11.11" height="4.63" fill="#dc2626" rx="2"/>
<rect x="412.50" y="474.41" width="11.11" height="105.59" fill="#22c55e" rx="2"/>
<text x="475.00" y="604" text-anchor="middle" font-family="Arial, sans-serif" font-size="12" fill="#475569">May</text>
<rect x="440.28" y="162.61" width="11.11" height="417.39" fill="#0f172a" rx="2"/>
<rect x="454.17" y="278.53" width="11.11" height="301.47" fill="#0ea5e9" rx="2"/>
<rect x="468.06" y="311.41" width="11.11" height="268.59" fill="#f59e0b" rx="2"/>
<rect x="481.94" y="578.29" width="11.11" height="1.71" fill="#dc2626" rx="2"/>
<rect x="495.83" y="458.15" width="11.11" height="121.85" fill="#22c55e" rx="2"/>
<text x="558.33" y="604" text-anchor="middle" font-family="Arial, sans-serif" font-size="12" fill="#475569">Jun</text>
<rect x="523.61" y="185.07" width="11.11" height="394.93" fill="#0f172a" rx="2"/>
<rect x="537.50" y="425.86" width="11.11" height="154.14" fill="#0ea5e9" rx="2"/>
<rect x="551.39" y="320.13" width="11.11" height="259.87" fill="#f59e0b" rx="2"/>
<rect x="565.28" y="550.97" width="11.11" height="29.03" fill="#dc2626" rx="2"/>
<rect x="579.17" y="556.54" width="11.11" height="23.46" fill="#22c55e" rx="2"/>
<text x="641.67" y="604" text-anchor="middle" font-family="Arial, sans-serif" font-size="12" fill="#475569">Jul</text>
<rect x="606.94" y="205.17" width="11.11" height="374.83" fill="#0f172a" rx="2"/>
<rect x="620.83" y="453.21" width="11.11" height="126.79" fill="#0ea5e9" rx="2"/>
<rect x="634.72" y="340.39" width="11.11" height="239.61" fill="#f59e0b" rx="2"/>
<rect x="648.61" y="532.40" width="11.11" height="47.60" fill="#dc2626" rx="2"/>
<rect x="662.50" y="566.72" width="11.11" height="13.28" fill="#22c55e" rx="2"/>
<text x="725.00" y="604" text-anchor="middle" font-family="Arial, sans-serif" font-size="12" fill="#475569">Aug</text>
<rect x="690.28" y="240.40" width="11.11" height="339.60" fill="#0f172a" rx="2"/>
<rect x="704.17" y="481.90" width="11.11" height="98.10" fill="#0ea5e9" rx="2"/>
<rect x="718.06" y="341.57" width="11.11" height="238.43" fill="#f59e0b" rx="2"/>
<rect x="731.94" y="532.63" width="11.11" height="47.37" fill="#dc2626" rx="2"/>
<rect x="745.83" y="569.43" width="11.11" height="10.57" fill="#22c55e" rx="2"/>
<text x="808.33" y="604" text-anchor="middle" font-family="Arial, sans-serif" font-size="12" fill="#475569">Sep</text>
<rect x="773.61" y="265.36" width="11.11" height="314.64" fill="#0f172a" rx="2"/>
<rect x="787.50" y="431.64" width="11.11" height="148.36" fill="#0ea5e9" rx="2"/>
<rect x="801.39" y="354.61" width="11.11" height="225.39" fill="#f59e0b" rx="2"/>
<rect x="815.28" y="568.10" width="11.11" height="11.90" fill="#dc2626" rx="2"/>
<rect x="829.17" y="543.40" width="11.11" height="36.60" fill="#22c55e" rx="2"/>
<text x="891.67" y="604" text-anchor="middle" font-family="Arial, sans-serif" font-size="12" fill="#475569">Oct</text>
<rect x="856.94" y="243.04" width="11.11" height="336.96" fill="#0f172a" rx="2"/>
<rect x="870.83" y="454.29" width="11.11" height="125.71" fill="#0ea5e9" rx="2"/>
<rect x="884.72" y="357.92" width="11.11" height="222.08" fill="#f59e0b" rx="2"/>
<rect x="898.61" y="540.97" width="11.11" height="39.03" fill="#dc2626" rx="2"/>
<rect x="912.50" y="558.72" width="11.11" height="21.28" fill="#22c55e" rx="2"/>
<text x="975.00" y="604" text-anchor="middle" font-family="Arial, sans-serif" font-size="12" fill="#475569">Nov</text>
<rect x="940.28" y="232.98" width="11.11" height="347.02" fill="#0f172a" rx="2"/>
<rect x="954.17" y="359.50" width="11.11" height="220.50" fill="#0ea5e9" rx="2"/>
<rect x="968.06" y="373.94" width="11.11" height="206.06" fill="#f59e0b" rx="2"/>
<rect x="981.94" y="565.08" width="11.11" height="14.92" fill="#dc2626" rx="2"/>
<rect x="995.83" y="512.21" width="11.11" height="67.79" fill="#22c55e" rx="2"/>
<text x="1058.33" y="604" text-anchor="middle" font-family="Arial, sans-serif" font-size="12" fill="#475569">Dec</text>
<rect x="1023.61" y="207.89" width="11.11" height="372.11" fill="#0f172a" rx="2"/>
<rect x="1037.50" y="305.36" width="11.11" height="274.64" fill="#0ea5e9" rx="2"/>
<rect x="1051.39" y="384.20" width="11.11" height="195.80" fill="#f59e0b" rx="2"/>
<rect x="1065.28" y="577.21" width="11.11" height="2.79" fill="#dc2626" rx="2"/>
<rect x="1079.17" y="508.06" width="11.11" height="71.94" fill="#22c55e" rx="2"/>
<rect x="120" y="670" width="24" height="12" fill="#0f172a" rx="2"/>
<text x="154" y="680" font-family="Arial, sans-serif" font-size="14" fill="#0f172a">Load</text>
<rect x="340" y="670" width="24" height="12" fill="#0ea5e9" rx="2"/>
<text x="374" y="680" font-family="Arial, sans-serif" font-size="14" fill="#0f172a">Wind</text>
<rect x="560" y="670" width="24" height="12" fill="#f59e0b" rx="2"/>
<text x="594" y="680" font-family="Arial, sans-serif" font-size="14" fill="#0f172a">PV</text>
<rect x="780" y="670" width="24" height="12" fill="#dc2626" rx="2"/>
<text x="814" y="680" font-family="Arial, sans-serif" font-size="14" fill="#0f172a">Backup</text>
<rect x="1000" y="670" width="24" height="12" fill="#22c55e" rx="2"/>
<text x="1034" y="680" font-family="Arial, sans-serif" font-size="14" fill="#0f172a">Overproduction</text>
</svg>
