<svg xmlns="http://www.w3.org/2000/svg" width="1200" height="720" viewBox="0 0 1200 720">
<rect x="0" y="0" width="1200" height="720" fill="#f8fafc"/>
<text x="50" y="48" font-family="Arial, sans-serif" font-size="28" font-weight="700" fill="#0f172a">Scenario A: Highest-Backup Week</text>
<text x="90" y="80" font-family="Arial, sans-serif" font-size="16" fill="#475569">Hourly slice for the seven-day window with the largest rolling biodiesel backup need.</text>
<line x1="90" y1="600" x2="1110" y2="600" stroke="#94a3b8" stroke-width="2"/>
<line x1="90" y1="100" x2="90" y2="600" stroke="#94a3b8" stroke-width="2"/>
<text x="30" y="350" transform="rotate(-90 30 350)" font-family="Arial, sans-serif" font-size="15" fill="#334155">MW</text>
<line x1="90" y1="600.00" x2="1110" y2="600.00" stroke="#e2e8f0" stroke-width="1"/>
<text x="78" y="605.00" text-anchor="end" font-family="Arial, sans-serif" font-size="13" fill="#475569">0.0</text>
<line x1="90" y1="500.00" x2="1110" y2="500.00" stroke="#e2e8f0" stroke-width="1"/>
<text x="78" y="505.00" text-anchor="end" font-family="Arial, sans-serif" font-size="13" fill="#475569">18.8</text>
<line x1="90" y1="400.00" x2="1110" y2="400.00" stroke="#e2e8f0" stroke-width="1"/>
<text x="78" y="405.00" text-anchor="end" font-family="Arial, sans-serif" font-size="13" fill="#475569">37.6</text>
<line x1="90" y1="300.00" x2="1110" y2="300.00" stroke="#e2e8f0" stroke-width="1"/>
<text x="78" y="305.00" text-anchor="end" font-family="Arial, sans-serif" font-size="13" fill="#475569">56.5</text>
<line x1="90" y1="200.00" x2="1110" y2="200.00" stroke="#e2e8f0" stroke-width="1"/>
<text x="78" y="205.00" text-anchor="end" font-family="Arial, sans-serif" font-size="13" fill="#475569">75.3</text>
<line x1="90" y1="100.00" x2="1110" y2="100.00" stroke="#e2e8f0" stroke-width="1"/>
<text x="78" y="105.00" text-anchor="end" font-family="Arial, sans-serif" font-size="13" fill="#475569">94.1</text>
<line x1="90.00" y1="600" x2="90.00" y2="606" stroke="#94a3b8" stroke-width="1"/>
<text x="90.00" y="624" text-anchor="middle" font-family="Arial, sans-serif" font-size="12" fill="#475569"></text>
<line x1="175.51" y1="600" x2="175.51" y2="606" stroke="#94a3b8" stroke-width="1"/>
<text x="175.51" y="624" text-anchor="middle" font-family="Arial, sans-serif" font-size="12" fill="#475569"></text>
<line x1="261.02" y1="600" x2="261.02" y2="606" stroke="#94a3b8" stroke-width="1"/>
<text x="261.02" y="624" text-anchor="middle" font-family="Arial, sans-serif" font-size="12" fill="#475569"></text>
<line x1="346.53" y1="600" x2="346.53" y2="606" stroke="#94a3b8" stroke-width="1"/>
<text x="346.53" y="624" text-anchor="middle" font-family="Arial, sans-serif" font-size="12" fill="#475569"></text>
<line x1="432.04" y1="600" x2="432.04" y2="606" stroke="#94a3b8" stroke-width="1"/>
<text x="432.04" y="624" text-anchor="middle" font-family="Arial, sans-serif" font-size="12" fill="#475569"></text>
<line x1="517.54" y1="600" x2="517.54" y2="606" stroke="#94a3b8" stroke-width="1"/>
<text x="517.54" y="624" text-anchor="middle" font-family="Arial, sans-serif" font-size="12" fill="#475569">07 Oct</text>
<line x1="603.05" y1="600" x2="603.05" y2="606" stroke="#94a3b8" stroke-width="1"/>
<text x="603.05" y="624" text-anchor="middle" font-family="Arial, sans-serif" font-size="12" fill="#475569"></text>
<line x1="688.56" y1="600" x2="688.56" y2="606" stroke="#94a3b8" stroke-width="1"/>
<text x="688.56" y="624" text-anchor="middle" font-family="Arial, sans-serif" font-size="12" fill="#475569"></text>
<line x1="774.07" y1="600" x2="774.07" y2="606" stroke="#94a3b8" stroke-width="1"/>
<text x="774.07" y="624" text-anchor="middle" font-family="Arial, sans-serif" font-size="12" fill="#475569"></text>
<line x1="859.58" y1="600" x2="859.58" y2="606" stroke="#94a3b8" stroke-width="1"/>
<text x="859.58" y="624" text-anchor="middle" font-family="Arial, sans-serif" font-size="12" fill="#475569"></text>
<line x1="945.09" y1="600" x2="945.09" y2="606" stroke="#94a3b8" stroke-width="1"/>
<text x="945.09" y="624" text-anchor="middle" font-family="Arial, sans-serif" font-size="12" fill="#475569"></text>
<line x1="1030.60" y1="600" x2="1030.60" y2="606" stroke="#94a3b8" stroke-width="1"/>
<text x="1030.60" y="624" text-anchor="middle" font-family="Arial, sans-serif" font-size="12" fill="#475569"></text>
<polyline fill="none" stroke="#0f172a" stroke-width="3" points="90.00,454.01 96.11,457.21 102.22,458.91 108.32,453.27 114.43,424.77 120.54,418.88 126.65,416.84 132.75,429.40 138.86,415.82 144.97,408.45 151.08,397.26 157.19,389.02 163.29,389.05 169.40,398.52 175.51,405.49 181.62,399.91 187.72,403.27 193.83,393.09 199.94,399.60 206.05,440.56 212.16,443.09 218.26,443.74 224.37,446.17 230.48,444.79 236.59,448.83 242.69,453.79 248.80,455.49 254.91,449.97 261.02,422.46 267.13,419.71 273.23,422.24 279.34,438.89 285.45,423.63 291.56,411.04 297.66,397.13 303.77,394.94 309.88,396.18 315.99,406.17 322.10,411.04 328.20,398.49 334.31,397.97 340.42,395.44 346.53,403.95 352.63,443.86 358.74,445.56 364.85,444.35 370.96,447.68 377.07,447.81 383.17,451.97 389.28,455.73 395.39,457.25 401.50,452.65 407.60,421.22 413.71,416.53 419.82,418.63 425.93,436.40 432.04,420.94 438.14,411.14 444.25,411.23 450.36,406.48 456.47,402.78 462.57,406.79 468.68,411.82 474.79,401.02 480.90,404.85 487.01,401.79 493.11,406.02 499.22,449.81 505.33,449.81 511.44,449.57 517.54,452.74 523.65,451.72 529.76,457.49 535.87,455.06 541.98,455.43 548.08,447.87 554.19,431.65 560.30,421.19 566.41,426.50 572.51,435.96 578.62,420.54 584.73,413.51 590.84,406.23 596.95,401.05 603.05,403.80 609.16,411.72 615.27,416.16 621.38,405.34 627.49,404.48 633.59,398.34 639.70,397.78 645.81,441.24 651.92,444.91 658.02,446.30 664.13,449.69 670.24,451.97 676.35,457.31 682.46,459.13 688.56,460.21 694.67,454.99 700.78,429.09 706.89,423.13 712.99,431.71 719.10,448.02 725.21,434.27 731.32,421.22 737.43,411.72 743.53,407.47 749.64,407.62 755.75,419.19 761.86,423.97 767.96,412.62 774.07,404.81 780.18,401.85 786.29,406.42 792.40,451.60 798.50,457.62 804.61,456.26 810.72,457.83 816.83,449.47 822.93,452.56 829.04,454.53 835.15,452.71 841.26,447.90 847.37,425.63 853.47,420.57 859.58,424.58 865.69,435.19 871.80,426.22 877.90,423.41 884.01,420.05 890.12,408.45 896.23,408.42 902.34,414.01 908.44,410.12 914.55,398.49 920.66,392.79 926.77,387.70 932.87,396.24 938.98,438.34 945.09,438.43 951.20,446.08 957.31,453.08 963.41,446.23 969.52,448.21 975.63,450.12 981.74,451.23 987.84,446.02 993.95,421.13 1000.06,415.86 1006.17,421.07 1012.28,430.66 1018.38,421.65 1024.49,410.12 1030.60,395.04 1036.71,398.58 1042.81,397.84 1048.92,402.44 1055.03,404.69 1061.14,388.34 1067.25,401.05 1073.35,394.27 1079.46,398.49 1085.57,442.50 1091.68,438.00 1097.78,438.19 1103.89,447.07 1110.00,444.05"/>
<line x1="110" y1="680" x2="138" y2="680" stroke="#0f172a" stroke-width="4"/>
<text x="146" y="685" font-family="Arial, sans-serif" font-size="14" fill="#0f172a">Load</text>
<polyline fill="none" stroke="#16a34a" stroke-width="3" points="90.00,599.70 96.11,599.97 102.22,599.99 108.32,599.97 114.43,599.92 120.54,594.29 126.65,542.67 132.75,456.07 138.86,380.11 144.97,346.84 151.08,312.71 157.19,263.63 163.29,246.01 169.40,310.21 175.51,409.36 181.62,479.82 187.72,561.75 193.83,598.29 199.94,599.88 206.05,599.73 212.16,599.65 218.26,599.54 224.37,599.33 230.48,598.39 236.59,595.11 242.69,590.53 248.80,586.02 254.91,581.44 261.02,573.95 267.13,558.29 273.23,468.21 279.34,337.62 285.45,209.90 291.56,129.59 297.66,100.00 303.77,117.37 309.88,159.81 315.99,225.02 322.10,317.26 328.20,430.90 334.31,537.70 340.42,587.47 346.53,595.43 352.63,598.62 358.74,599.39 364.85,599.49 370.96,598.80 377.07,596.58 383.17,596.58 389.28,598.51 395.39,598.88 401.50,597.93 407.60,595.43 413.71,586.61 419.82,517.64 425.93,408.21 432.04,296.21 438.14,214.48 444.25,172.03 450.36,155.84 456.47,180.32 462.57,231.11 468.68,329.80 474.79,464.22 480.90,556.95 487.01,599.97 493.11,599.96 499.22,599.92 505.33,599.81 511.44,599.58 517.54,598.80 523.65,594.77 529.76,584.12 535.87,574.75 541.98,569.78 548.08,569.78 554.19,573.14 560.30,572.54 566.41,518.71 572.51,428.18 578.62,321.76 584.73,243.76 590.84,195.15 596.95,164.81 603.05,208.31 609.16,255.46 615.27,352.11 621.38,461.39 627.49,548.36 633.59,586.63 639.70,580.74 645.81,577.08 651.92,574.75 658.02,570.63 664.13,564.38 670.24,557.49 676.35,549.90 682.46,545.21 688.56,546.41 694.67,551.03 700.78,557.49 706.89,558.04 712.99,507.94 719.10,411.33 725.21,321.43 731.32,235.51 737.43,194.39 743.53,177.05 749.64,230.35 755.75,265.79 761.86,358.85 767.96,468.15 774.07,559.74 780.18,599.54 786.29,597.93 792.40,591.98 798.50,584.77 804.61,580.03 810.72,578.58 816.83,579.31 822.93,579.31 829.04,577.08 835.15,571.48 841.26,564.38 847.37,555.40 853.47,541.01 859.58,468.70 865.69,353.79 871.80,245.27 877.90,164.99 884.01,123.23 890.12,132.01 896.23,179.83 902.34,222.86 908.44,298.69 914.55,397.69 920.66,476.49 926.77,510.43 932.87,511.98 938.98,519.54 945.09,531.00 951.20,542.77 957.31,556.45 963.41,568.03 969.52,577.08 975.63,582.81 981.74,586.63 987.84,587.22 993.95,586.02 1000.06,578.80 1006.17,522.56 1012.28,425.52 1018.38,332.17 1024.49,254.87 1030.60,208.84 1036.71,188.86 1042.81,222.98 1048.92,258.29 1055.03,349.36 1061.14,454.58 1067.25,552.64 1073.35,598.10 1079.46,596.58 1085.57,594.42 1091.68,592.43 1097.78,591.51 1103.89,592.86 1110.00,594.06"/>
<line x1="330" y1="680" x2="358" y2="680" stroke="#16a34a" stroke-width="4"/>
<text x="366" y="685" font-family="Arial, sans-serif" font-size="14" fill="#0f172a">Wind + PV</text>
<polyline fill="none" stroke="#dc2626" stroke-width="3" points="90.00,454.30 96.11,457.24 102.22,458.92 108.32,453.29 114.43,424.85 120.54,424.59 126.65,474.17 132.75,573.33 138.86,600.00 144.97,600.00 151.08,600.00 157.19,600.00 163.29,600.00 169.40,600.00 175.51,600.00 181.62,600.00 187.72,600.00 193.83,581.50 199.94,399.72 206.05,440.83 212.16,443.44 218.26,444.20 224.37,446.84 230.48,446.40 236.59,453.72 242.69,463.27 248.80,469.47 254.91,468.52 261.02,448.51 267.13,461.42 273.23,554.03 279.34,600.00 285.45,600.00 291.56,600.00 297.66,600.00 303.77,600.00 309.88,600.00 315.99,600.00 322.10,600.00 328.20,600.00 334.31,600.00 340.42,600.00 346.53,600.00 352.63,600.00 358.74,600.00 364.85,600.00 370.96,600.00 377.07,556.61 383.17,455.39 389.28,457.22 395.39,458.36 401.50,454.72 407.60,425.80 413.71,429.92 419.82,500.99 425.93,600.00 432.04,600.00 438.14,600.00 444.25,600.00 450.36,600.00 456.47,600.00 462.57,600.00 468.68,600.00 474.79,600.00 480.90,600.00 487.01,600.00 493.11,600.00 499.22,600.00 505.33,600.00 511.44,520.38 517.54,453.94 523.65,456.95 529.76,473.37 535.87,480.31 541.98,485.65 548.08,478.09 554.19,458.51 560.30,448.66 566.41,507.78 572.51,600.00 578.62,600.00 584.73,600.00 590.84,600.00 596.95,600.00 603.05,600.00 609.16,600.00 615.27,600.00 621.38,600.00 627.49,600.00 633.59,600.00 639.70,600.00 645.81,600.00 651.92,600.00 658.02,489.32 664.13,485.31 670.24,494.48 676.35,507.41 682.46,513.92 688.56,513.80 694.67,503.96 700.78,471.59 706.89,465.10 712.99,523.77 719.10,600.00 725.21,600.00 731.32,600.00 737.43,600.00 743.53,600.00 749.64,600.00 755.75,600.00 761.86,600.00 767.96,600.00 774.07,600.00 780.18,600.00 786.29,600.00 792.40,600.00 798.50,600.00 804.61,476.23 810.72,479.25 816.83,470.16 822.93,473.25 829.04,477.45 835.15,481.23 841.26,483.52 847.37,470.23 853.47,479.57 859.58,555.89 865.69,600.00 871.80,600.00 877.90,600.00 884.01,600.00 890.12,600.00 896.23,600.00 902.34,600.00 908.44,600.00 914.55,600.00 920.66,600.00 926.77,600.00 932.87,600.00 938.98,600.00 945.09,600.00 951.20,600.00 957.31,600.00 963.41,600.00 969.52,600.00 975.63,600.00 981.74,600.00 987.84,464.23 993.95,435.11 1000.06,437.05 1006.17,498.51 1012.28,600.00 1018.38,600.00 1024.49,600.00 1030.60,600.00 1036.71,600.00 1042.81,600.00 1048.92,600.00 1055.03,600.00 1061.14,600.00 1067.25,600.00 1073.35,600.00 1079.46,600.00 1085.57,600.00 1091.68,445.57 1097.78,446.68 1103.89,454.21 1110.00,449.99"/>
<line x1="550" y1="680" x2="578" y2="680" stroke="#dc2626" stroke-width="4"/>
<text x="586" y="685" font-family="Arial, sans-serif" font-size="14" fill="#0f172a">Backup</text>
</svg>
